<?xml version="1.0" encoding="UTF-8"?>
<!-- Created with Inkscape (http://www.inkscape.org/) -->
<svg width="88" height="31" version="1.1" viewBox="0 0 23.283 8.2021" xml:space="preserve" xmlns="http://www.w3.org/2000/svg" xmlns:xlink="http://www.w3.org/1999/xlink"><defs><linearGradient id="linearGradient4390"><stop stop-color="#ff7654" offset="0"/><stop stop-color="#ffae54" offset="1"/></linearGradient><linearGradient id="linearGradient4369" x1="552.87" x2="1076.7" y1="897.16" y2="897.16" gradientTransform="translate(-100.48 -78.949)" gradientUnits="userSpaceOnUse" xlink:href="#linearGradient4390"/><linearGradient id="linearGradient4396" x1="439.29" x2="958.19" y1="818.21" y2="818.21" gradientUnits="userSpaceOnUse" xlink:href="#linearGradient4390"/><filter id="filter41" x="-.03697" y="-.19056" width="1.0893" height="1.4605" color-interpolation-filters="sRGB"><feFlood flood-color="rgb(0,0,0)" flood-opacity=".49804" in="SourceGraphic" result="flood"/><feGaussianBlur in="SourceGraphic" result="blur" stdDeviation="0.200000"/><feOffset dx="0.200000" dy="0.200000" in="blur" result="offset"/><feComposite in="flood" in2="offset" operator="in" result="comp1"/><feComposite in="SourceGraphic" in2="comp1" result="comp2"/></filter></defs><rect x=".1354" y=".1354" width="23.013" height="7.9313" ry="2.4175" fill="#98dff3" stroke="#49b9ca" stroke-width=".2708"/><g transform="matrix(1.2213 0 0 1.2213 1.4751 1.4503)" stroke="#000"><path d="m1.539 0.14975s1.0825-0.16038 1.6438 0.16037c0.56131 0.32075 0.92216 0.88206 1.0825 1.263 0.16038 0.38089 0.16038 1.5637-0.66155 2.1851-0.82192 0.62145-1.7441 0.48112-2.2853 0.40093-0.54127-0.0802-1.1828-0.9422-1.2229-1.4233-0.040094-0.48113 0.12028-1.2028 0.32075-1.724 0.20047-0.52121 1.0625-0.86201 1.1226-0.86201z" fill="#fff" stroke-width=".10422"/><g fill="none" stroke-width=".10422"><path d="m1.2368 2.9974 0.72544-0.12667 0.55272-0.37999 0.56423-0.5412 0.27636 0.12667 0.2303 0.17272 0.057575 0.28787-0.02303 0.4606-0.080604 0.21878-0.20727 0.2303-0.2303 0.16121-0.2303 0.0921-0.24181 0.0345-0.47211-0.0345-0.49514-0.13818-0.34545-0.21879-0.20727-0.23029"/><path d="m2.6301 3.2622 0.14969-0.0115 0.2303-0.11515 0.18424-0.19576 0.10363-0.12666-0.023029-0.10363"/><path d="m2.9525 2.6865 0.35696 0.71393"/></g><path d="m3.0101 2.8477-0.069089 0.12667 0.034544 0.17272 0.14969-0.13818z" stroke-width=".052111"/><path d="m0.77616 1.3162s0.21878-0.58726 0.6909-0.16121" fill="none" stroke-width=".10422"/><path d="m2.2961 1.0283s0.48363-0.72545 0.84059-0.0346" fill="none" stroke-width=".10422"/><path d="m1.1446 2.1107c0.16121-0.63332 0.24181-0.42605 0.24181-0.42605s0.12666 0.13817 0.080605 0.36847c-0.044922 0.23372-0.060641-0.20495-0.32242 0.0576z" stroke-width=".052111"/><path d="m2.5495 1.9726c0.034545-0.95574 0.33393-0.48363 0.33393-0.48363l0.034544 0.19576s0.32242 0.0921 0 0.0921c-0.32242 0-0.21878-0.0576-0.36848 0.19576z" stroke-width=".052111"/></g><g transform="matrix(1 0 0 1 .2426 .0583)"><g transform="matrix(.01404 0 0 .01404 2.5502 -5.9199)"><path d="m452.39 872.59q-0.108-4.5363 3.0242-7.3444 3.2402-2.9162 7.8845-2.9162 5.2923 0 9.2885 6.0484 5.5083 8.2085 9.8286 11.125 9.1805 6.0484 26.678 6.0484 16.741 0 31.106-7.2364 18.361-9.2886 18.361-25.814 0-13.609-15.445-21.493-13.069-6.8044-32.294-7.3444-17.065-0.64804-29.054-7.4524-15.337-8.7485-15.337-25.057 0-19.225 21.817-35.102 20.845-15.013 43.095-15.013 10.477 0 23.653 3.5642 17.497 4.6443 17.497 11.881 0 9.5046-9.7206 9.5046-4.3202 0-15.121-2.2681-10.801-2.3761-16.741-2.2681-16.849 0.21601-28.622 8.3165-12.097 8.3165-12.097 20.197 0 8.9645 15.985 12.637 5.9404 1.4041 23.005 2.5922 24.733 1.8361 38.666 15.553 12.745 12.529 12.745 30.566 0 25.706-23.761 41.042-20.629 13.285-47.847 13.285-19.765 0-36.182-7.5604-20.089-9.2885-20.413-25.49zm286-109.52q-7.9925 0-24.625-1.2961-16.201-1.1881-24.625-1.0801h-7.6685q0.32402 14.905 2.9162 48.387 2.3761 31.214 2.3761 48.495 0 3.7802 0.75604 11.449t0.75604 11.557q0 7.3444-2.3761 12.637-3.0242 7.1284-9.3966 7.1284-4.3202 0-7.7764-3.0242-3.4562-3.0242-3.4562-7.7765 0-1.6201 0.54003-4.8603 0.54004-3.2402 0.54004-4.8603 0-5.2923-0.75605-15.877-0.64804-10.585-0.64804-15.985 0-15.445-2.4841-43.419-2.5922-30.242-2.9162-43.419l-9.8286 0.10801q-23.653 0-37.154-3.4562-8.7485-2.2681-8.7485-10.693 0-4.4283 2.8082-7.7764 3.2402-3.7802 8.3165-3.4562 3.7802 0.21602 17.281 1.9441 10.801 1.2961 17.497 1.2961 6.4804 0 19.657-0.21601 13.177-0.32402 19.657-0.32402 8.3165 0 24.625 1.1881 16.417 1.1881 24.733 1.1881 4.6443 0 7.7765 3.2402 3.1322 3.1322 3.1322 7.8845 0 4.6443-3.1322 7.8845-3.1322 3.1322-7.7765 3.1322zm38.882-0.32402q-5.1843 0-8.9645-3.6722-3.7802-3.6722-3.7802-8.8565 0-5.1843 3.7802-8.8565 3.7802-3.6722 8.9645-3.6722 5.1843 0 8.8565 3.6722 3.7802 3.6722 3.7802 8.8565 0 5.1843-3.7802 8.8565-3.6722 3.6722-8.8565 3.6722zm4.8603 87.701q0 6.4804 0.32402 19.441 0.43203 12.853 0.43203 19.333 0 4.7523-2.9162 7.7765-2.9162 3.0242-7.6684 3.0242-4.6443 0-7.6684-3.0242-2.9162-3.0242-2.9162-7.7765 0-6.4804-0.43202-19.333-0.32402-12.961-0.32402-19.441 0-10.153 1.0801-25.273 1.0801-15.229 1.0801-25.382 0-4.8603 2.9162-7.8845 3.0242-3.0242 7.6684-3.0242 4.6443 0 7.5604 3.0242 3.0242 3.0242 3.0242 7.8845 0 10.153-1.0801 25.382-1.0801 15.121-1.0801 25.273zm117.19 44.715q-24.301 9.5046-62.104 9.5046-4.6443 0-8.8565-4.4283-4.1042-4.3203-4.1042-8.9645v-31.43q0-15.445 1.9441-44.067 2.1601-30.89 2.3761-44.715-0.108-9.9366 1.1881-29.594 0.75605-5.4003 3.5642-7.1284 14.689-4.5363 33.374-4.5363 19.009 0 36.506 12.961 20.197 14.905 20.197 36.83 0 27.758-21.601 43.743 16.201 6.9124 24.193 15.337 8.1005 8.4245 8.1005 18.361 0 13.069-14.149 25.273-9.8286 8.6405-20.629 12.853zm-32.618-143.32q-11.773 0-16.525 0.75605l-0.21601 18.901-2.1601 41.798q15.337 1.2961 16.417 1.1881 16.309-1.2961 26.678-10.153 11.125-9.6126 11.125-24.733 0-10.261-11.341-19.009-11.341-8.7485-23.977-8.7485zm12.097 86.513-11.449-1.8361q-1.4041 0-4.3202 0.21601-2.8082 0.10801-4.3202 0.10801-5.8324 0-12.421-0.97206-0.64803 13.609-0.64803 24.301v22.357q28.298-0.97206 46.119-7.9925 7.5604-2.9162 14.473-9.0725 6.5884-5.6163 6.5884-8.4245 0-5.0763-13.825-11.449-10.369-4.8603-20.197-7.2364zm163.63 68.26q-2.0521 0-7.4525-4.7523-4.8602-4.4283-7.2364-7.8845-10.369 5.6163-18.253 8.4245-7.8844 2.9162-13.177 2.9162-25.273 0-36.83-14.257-10.909-13.393-10.909-41.042 0-26.138 17.929-44.715 18.037-18.577 42.986-18.577 9.3966 0 21.061 4.8603 14.689 6.0484 14.689 14.581 0 2.9162-2.1602 5.1843-1.08 4.1042-1.7281 13.501-0.54 9.3966-0.648 24.085-0.108 13.393 1.8361 21.169 1.0801 4.7523 6.8044 19.009 0.756 1.9441 2.4841 5.7243l0.6481 1.8361q0 4.3202-3.0242 7.1284-3.0242 2.8082-7.0204 2.8082zm-22.465-75.064q0-4.6443 0.54-10.045 0.648-5.5083 1.8361-11.665-3.9962-2.0521-6.9124-3.0242-2.8082-0.97206-4.5363-0.97206-16.741 0-28.946 13.717-12.097 13.609-12.097 31.43 0 17.713 6.2644 26.57 6.2644 8.8565 18.793 8.8565 10.369 0 17.605-3.7802 3.8883-2.0521 10.909-8.2085-3.4562-28.622-3.4562-42.879zm157.91 69.124q-4.1043 0-7.6685-3.4562-35.75-35.318-79.493-47.523l0.8641 21.169 0.54 21.277q0 4.7523-3.1322 7.8845-3.0241 3.2402-7.6684 3.2402t-7.7765-3.2402q-3.0241-3.1322-3.0241-7.8845 0-8.5325-0.8641-25.381-0.756-16.957-0.756-25.49 0-9.9366 2.1601-29.594 2.1601-19.657 2.1601-29.486 0-5.5083-1.08-16.309-0.9721-10.801-0.9721-16.309 0-6.1564 3.4562-10.801 4.1042-5.7243 11.341-5.1843l26.03 2.0521q14.797 1.8361 24.95 7.2364 43.742 23.221 43.742 56.703 0 16.417-14.905 29.054-11.989 10.153-29.918 15.445 33.59 18.037 50.223 38.018 2.8081 3.4562 2.8081 7.3444 0 4.5363-3.3482 7.8845-3.2402 3.3482-7.6684 3.3482zm-68.8-142.78-15.985-1.2961 1.08 13.069q0.7561 7.9925 0.7561 13.069 0 8.6405-1.4041 21.493l-2.2681 21.493q1.5121 0 4.6442 0.108 3.2402 0.10801 4.8603 0.10801 27.542 0 41.258-7.3444 6.0483-3.3482 11.233-8.7485 5.7244-6.0484 5.7244-10.261 0-15.013-17.065-27.974-15.661-11.881-32.834-13.717zm205.43 20.413q-6.9124 0-10.369-8.1005-3.0242-6.9124-5.6164-8.4245-2.2681-1.1881-11.233-1.1881-15.661 0-34.778 23.977-25.922 32.186-25.922 61.024 0 13.933 8.9645 23.977 9.1806 10.369 22.141 10.369 11.125 0 22.357-5.7243 6.2643-3.2402 19.225-12.745 6.1563-4.5363 9.2885-4.5363 4.6443 0 7.7765 3.5642 3.1322 3.4562 3.1322 7.7765 0 4.8603-4.1043 8.5325-28.514 25.273-57.675 25.273-22.357 0-37.802-17.173-14.905-16.633-14.905-39.314 0-36.614 30.674-75.064 25.598-32.078 51.627-32.078 5.2923 0 9.5045 0.54003 4.2123 0.43202 7.4525 1.5121 3.7802-5.5083 9.8286-5.5083 7.4524 0 9.3965 9.8286 1.7281 8.7485 1.7281 21.493 0 4.4283-2.3761 7.7765-2.9162 4.2122-8.3165 4.2122z" fill="none" stroke="url(#linearGradient4396)" stroke-width="26.2" aria-label="STiBaRC"/><path d="m452.39 872.59q-0.108-4.5363 3.0242-7.3444 3.2402-2.9162 7.8845-2.9162 5.2923 0 9.2885 6.0484 5.5083 8.2085 9.8286 11.125 9.1805 6.0484 26.678 6.0484 16.741 0 31.106-7.2364 18.361-9.2886 18.361-25.814 0-13.609-15.445-21.493-13.069-6.8044-32.294-7.3444-17.065-0.64804-29.054-7.4524-15.337-8.7485-15.337-25.057 0-19.225 21.817-35.102 20.845-15.013 43.095-15.013 10.477 0 23.653 3.5642 17.497 4.6443 17.497 11.881 0 9.5046-9.7206 9.5046-4.3202 0-15.121-2.2681-10.801-2.3761-16.741-2.2681-16.849 0.21601-28.622 8.3165-12.097 8.3165-12.097 20.197 0 8.9645 15.985 12.637 5.9404 1.4041 23.005 2.5922 24.733 1.8361 38.666 15.553 12.745 12.529 12.745 30.566 0 25.706-23.761 41.042-20.629 13.285-47.847 13.285-19.765 0-36.182-7.5604-20.089-9.2885-20.413-25.49zm286-109.52q-7.9925 0-24.625-1.2961-16.201-1.1881-24.625-1.0801h-7.6685q0.32402 14.905 2.9162 48.387 2.3761 31.214 2.3761 48.495 0 3.7802 0.75604 11.449t0.75604 11.557q0 7.3444-2.3761 12.637-3.0242 7.1284-9.3966 7.1284-4.3202 0-7.7764-3.0242-3.4562-3.0242-3.4562-7.7765 0-1.6201 0.54003-4.8603 0.54004-3.2402 0.54004-4.8603 0-5.2923-0.75605-15.877-0.64804-10.585-0.64804-15.985 0-15.445-2.4841-43.419-2.5922-30.242-2.9162-43.419l-9.8286 0.10801q-23.653 0-37.154-3.4562-8.7485-2.2681-8.7485-10.693 0-4.4283 2.8082-7.7764 3.2402-3.7802 8.3165-3.4562 3.7802 0.21602 17.281 1.9441 10.801 1.2961 17.497 1.2961 6.4804 0 19.657-0.21601 13.177-0.32402 19.657-0.32402 8.3165 0 24.625 1.1881 16.417 1.1881 24.733 1.1881 4.6443 0 7.7765 3.2402 3.1322 3.1322 3.1322 7.8845 0 4.6443-3.1322 7.8845-3.1322 3.1322-7.7765 3.1322zm38.882-0.32402q-5.1843 0-8.9645-3.6722-3.7802-3.6722-3.7802-8.8565 0-5.1843 3.7802-8.8565 3.7802-3.6722 8.9645-3.6722 5.1843 0 8.8565 3.6722 3.7802 3.6722 3.7802 8.8565 0 5.1843-3.7802 8.8565-3.6722 3.6722-8.8565 3.6722zm4.8603 87.701q0 6.4804 0.32402 19.441 0.43203 12.853 0.43203 19.333 0 4.7523-2.9162 7.7765-2.9162 3.0242-7.6684 3.0242-4.6443 0-7.6684-3.0242-2.9162-3.0242-2.9162-7.7765 0-6.4804-0.43202-19.333-0.32402-12.961-0.32402-19.441 0-10.153 1.0801-25.273 1.0801-15.229 1.0801-25.382 0-4.8603 2.9162-7.8845 3.0242-3.0242 7.6684-3.0242 4.6443 0 7.5604 3.0242 3.0242 3.0242 3.0242 7.8845 0 10.153-1.0801 25.382-1.0801 15.121-1.0801 25.273zm117.19 44.715q-24.301 9.5046-62.104 9.5046-4.6443 0-8.8565-4.4283-4.1042-4.3203-4.1042-8.9645v-31.43q0-15.445 1.9441-44.067 2.1601-30.89 2.3761-44.715-0.108-9.9366 1.1881-29.594 0.75605-5.4003 3.5642-7.1284 14.689-4.5363 33.374-4.5363 19.009 0 36.506 12.961 20.197 14.905 20.197 36.83 0 27.758-21.601 43.743 16.201 6.9124 24.193 15.337 8.1005 8.4245 8.1005 18.361 0 13.069-14.149 25.273-9.8286 8.6405-20.629 12.853zm-32.618-143.32q-11.773 0-16.525 0.75605l-0.21601 18.901-2.1601 41.798q15.337 1.2961 16.417 1.1881 16.309-1.2961 26.678-10.153 11.125-9.6126 11.125-24.733 0-10.261-11.341-19.009-11.341-8.7485-23.977-8.7485zm12.097 86.513-11.449-1.8361q-1.4041 0-4.3202 0.21601-2.8082 0.10801-4.3202 0.10801-5.8324 0-12.421-0.97206-0.64803 13.609-0.64803 24.301v22.357q28.298-0.97206 46.119-7.9925 7.5604-2.9162 14.473-9.0725 6.5884-5.6163 6.5884-8.4245 0-5.0763-13.825-11.449-10.369-4.8603-20.197-7.2364zm163.63 68.26q-2.0521 0-7.4525-4.7523-4.8602-4.4283-7.2364-7.8845-10.369 5.6163-18.253 8.4245-7.8844 2.9162-13.177 2.9162-25.273 0-36.83-14.257-10.909-13.393-10.909-41.042 0-26.138 17.929-44.715 18.037-18.577 42.986-18.577 9.3966 0 21.061 4.8603 14.689 6.0484 14.689 14.581 0 2.9162-2.1602 5.1843-1.08 4.1042-1.7281 13.501-0.54 9.3966-0.648 24.085-0.108 13.393 1.8361 21.169 1.0801 4.7523 6.8044 19.009 0.756 1.9441 2.4841 5.7243l0.6481 1.8361q0 4.3202-3.0242 7.1284-3.0242 2.8082-7.0204 2.8082zm-22.465-75.064q0-4.6443 0.54-10.045 0.648-5.5083 1.8361-11.665-3.9962-2.0521-6.9124-3.0242-2.8082-0.97206-4.5363-0.97206-16.741 0-28.946 13.717-12.097 13.609-12.097 31.43 0 17.713 6.2644 26.57 6.2644 8.8565 18.793 8.8565 10.369 0 17.605-3.7802 3.8883-2.0521 10.909-8.2085-3.4562-28.622-3.4562-42.879zm157.91 69.124q-4.1043 0-7.6685-3.4562-35.75-35.318-79.493-47.523l0.8641 21.169 0.54 21.277q0 4.7523-3.1322 7.8845-3.0241 3.2402-7.6684 3.2402t-7.7765-3.2402q-3.0241-3.1322-3.0241-7.8845 0-8.5325-0.8641-25.381-0.756-16.957-0.756-25.49 0-9.9366 2.1601-29.594 2.1601-19.657 2.1601-29.486 0-5.5083-1.08-16.309-0.9721-10.801-0.9721-16.309 0-6.1564 3.4562-10.801 4.1042-5.7243 11.341-5.1843l26.03 2.0521q14.797 1.8361 24.95 7.2364 43.742 23.221 43.742 56.703 0 16.417-14.905 29.054-11.989 10.153-29.918 15.445 33.59 18.037 50.223 38.018 2.8081 3.4562 2.8081 7.3444 0 4.5363-3.3482 7.8845-3.2402 3.3482-7.6684 3.3482zm-68.8-142.78-15.985-1.2961 1.08 13.069q0.7561 7.9925 0.7561 13.069 0 8.6405-1.4041 21.493l-2.2681 21.493q1.5121 0 4.6442 0.108 3.2402 0.10801 4.8603 0.10801 27.542 0 41.258-7.3444 6.0483-3.3482 11.233-8.7485 5.7244-6.0484 5.7244-10.261 0-15.013-17.065-27.974-15.661-11.881-32.834-13.717zm205.43 20.413q-6.9124 0-10.369-8.1005-3.0242-6.9124-5.6164-8.4245-2.2681-1.1881-11.233-1.1881-15.661 0-34.778 23.977-25.922 32.186-25.922 61.024 0 13.933 8.9645 23.977 9.1806 10.369 22.141 10.369 11.125 0 22.357-5.7243 6.2643-3.2402 19.225-12.745 6.1563-4.5363 9.2885-4.5363 4.6443 0 7.7765 3.5642 3.1322 3.4562 3.1322 7.7765 0 4.8603-4.1043 8.5325-28.514 25.273-57.675 25.273-22.357 0-37.802-17.173-14.905-16.633-14.905-39.314 0-36.614 30.674-75.064 25.598-32.078 51.627-32.078 5.2923 0 9.5045 0.54003 4.2123 0.43202 7.4525 1.5121 3.7802-5.5083 9.8286-5.5083 7.4524 0 9.3965 9.8286 1.7281 8.7485 1.7281 21.493 0 4.4283-2.3761 7.7765-2.9162 4.2122-8.3165 4.2122z" fill="none" stroke="#fff" stroke-width="16.3" aria-label="STiBaRC"/><path d="m452.39 872.59q-0.108-4.5363 3.0242-7.3444 3.2402-2.9162 7.8845-2.9162 5.2923 0 9.2885 6.0484 5.5083 8.2085 9.8286 11.125 9.1805 6.0484 26.678 6.0484 16.741 0 31.106-7.2364 18.361-9.2886 18.361-25.814 0-13.609-15.445-21.493-13.069-6.8044-32.294-7.3444-17.065-0.64804-29.054-7.4524-15.337-8.7485-15.337-25.057 0-19.225 21.817-35.102 20.845-15.013 43.095-15.013 10.477 0 23.653 3.5642 17.497 4.6443 17.497 11.881 0 9.5046-9.7206 9.5046-4.3202 0-15.121-2.2681-10.801-2.3761-16.741-2.2681-16.849 0.21601-28.622 8.3165-12.097 8.3165-12.097 20.197 0 8.9645 15.985 12.637 5.9404 1.4041 23.005 2.5922 24.733 1.8361 38.666 15.553 12.745 12.529 12.745 30.566 0 25.706-23.761 41.042-20.629 13.285-47.847 13.285-19.765 0-36.182-7.5604-20.089-9.2885-20.413-25.49zm286-109.52q-7.9925 0-24.625-1.2961-16.201-1.1881-24.625-1.0801h-7.6685q0.32402 14.905 2.9162 48.387 2.3761 31.214 2.3761 48.495 0 3.7802 0.75604 11.449t0.75604 11.557q0 7.3444-2.3761 12.637-3.0242 7.1284-9.3966 7.1284-4.3202 0-7.7764-3.0242-3.4562-3.0242-3.4562-7.7765 0-1.6201 0.54003-4.8603 0.54004-3.2402 0.54004-4.8603 0-5.2923-0.75605-15.877-0.64804-10.585-0.64804-15.985 0-15.445-2.4841-43.419-2.5922-30.242-2.9162-43.419l-9.8286 0.10801q-23.653 0-37.154-3.4562-8.7485-2.2681-8.7485-10.693 0-4.4283 2.8082-7.7764 3.2402-3.7802 8.3165-3.4562 3.7802 0.21602 17.281 1.9441 10.801 1.2961 17.497 1.2961 6.4804 0 19.657-0.21601 13.177-0.32402 19.657-0.32402 8.3165 0 24.625 1.1881 16.417 1.1881 24.733 1.1881 4.6443 0 7.7765 3.2402 3.1322 3.1322 3.1322 7.8845 0 4.6443-3.1322 7.8845-3.1322 3.1322-7.7765 3.1322zm38.882-0.32402q-5.1843 0-8.9645-3.6722-3.7802-3.6722-3.7802-8.8565 0-5.1843 3.7802-8.8565 3.7802-3.6722 8.9645-3.6722 5.1843 0 8.8565 3.6722 3.7802 3.6722 3.7802 8.8565 0 5.1843-3.7802 8.8565-3.6722 3.6722-8.8565 3.6722zm4.8603 87.701q0 6.4804 0.32402 19.441 0.43203 12.853 0.43203 19.333 0 4.7523-2.9162 7.7765-2.9162 3.0242-7.6684 3.0242-4.6443 0-7.6684-3.0242-2.9162-3.0242-2.9162-7.7765 0-6.4804-0.43202-19.333-0.32402-12.961-0.32402-19.441 0-10.153 1.0801-25.273 1.0801-15.229 1.0801-25.382 0-4.8603 2.9162-7.8845 3.0242-3.0242 7.6684-3.0242 4.6443 0 7.5604 3.0242 3.0242 3.0242 3.0242 7.8845 0 10.153-1.0801 25.382-1.0801 15.121-1.0801 25.273zm117.19 44.715q-24.301 9.5046-62.104 9.5046-4.6443 0-8.8565-4.4283-4.1042-4.3203-4.1042-8.9645v-31.43q0-15.445 1.9441-44.067 2.1601-30.89 2.3761-44.715-0.108-9.9366 1.1881-29.594 0.75605-5.4003 3.5642-7.1284 14.689-4.5363 33.374-4.5363 19.009 0 36.506 12.961 20.197 14.905 20.197 36.83 0 27.758-21.601 43.743 16.201 6.9124 24.193 15.337 8.1005 8.4245 8.1005 18.361 0 13.069-14.149 25.273-9.8286 8.6405-20.629 12.853zm-32.618-143.32q-11.773 0-16.525 0.75605l-0.21601 18.901-2.1601 41.798q15.337 1.2961 16.417 1.1881 16.309-1.2961 26.678-10.153 11.125-9.6126 11.125-24.733 0-10.261-11.341-19.009-11.341-8.7485-23.977-8.7485zm12.097 86.513-11.449-1.8361q-1.4041 0-4.3202 0.21601-2.8082 0.10801-4.3202 0.10801-5.8324 0-12.421-0.97206-0.64803 13.609-0.64803 24.301v22.357q28.298-0.97206 46.119-7.9925 7.5604-2.9162 14.473-9.0725 6.5884-5.6163 6.5884-8.4245 0-5.0763-13.825-11.449-10.369-4.8603-20.197-7.2364zm163.63 68.26q-2.0521 0-7.4525-4.7523-4.8602-4.4283-7.2364-7.8845-10.369 5.6163-18.253 8.4245-7.8844 2.9162-13.177 2.9162-25.273 0-36.83-14.257-10.909-13.393-10.909-41.042 0-26.138 17.929-44.715 18.037-18.577 42.986-18.577 9.3966 0 21.061 4.8603 14.689 6.0484 14.689 14.581 0 2.9162-2.1602 5.1843-1.08 4.1042-1.7281 13.501-0.54 9.3966-0.648 24.085-0.108 13.393 1.8361 21.169 1.0801 4.7523 6.8044 19.009 0.756 1.9441 2.4841 5.7243l0.6481 1.8361q0 4.3202-3.0242 7.1284-3.0242 2.8082-7.0204 2.8082zm-22.465-75.064q0-4.6443 0.54-10.045 0.648-5.5083 1.8361-11.665-3.9962-2.0521-6.9124-3.0242-2.8082-0.97206-4.5363-0.97206-16.741 0-28.946 13.717-12.097 13.609-12.097 31.43 0 17.713 6.2644 26.57 6.2644 8.8565 18.793 8.8565 10.369 0 17.605-3.7802 3.8883-2.0521 10.909-8.2085-3.4562-28.622-3.4562-42.879zm157.91 69.124q-4.1043 0-7.6685-3.4562-35.75-35.318-79.493-47.523l0.8641 21.169 0.54 21.277q0 4.7523-3.1322 7.8845-3.0241 3.2402-7.6684 3.2402t-7.7765-3.2402q-3.0241-3.1322-3.0241-7.8845 0-8.5325-0.8641-25.381-0.756-16.957-0.756-25.49 0-9.9366 2.1601-29.594 2.1601-19.657 2.1601-29.486 0-5.5083-1.08-16.309-0.9721-10.801-0.9721-16.309 0-6.1564 3.4562-10.801 4.1042-5.7243 11.341-5.1843l26.03 2.0521q14.797 1.8361 24.95 7.2364 43.742 23.221 43.742 56.703 0 16.417-14.905 29.054-11.989 10.153-29.918 15.445 33.59 18.037 50.223 38.018 2.8081 3.4562 2.8081 7.3444 0 4.5363-3.3482 7.8845-3.2402 3.3482-7.6684 3.3482zm-68.8-142.78-15.985-1.2961 1.08 13.069q0.7561 7.9925 0.7561 13.069 0 8.6405-1.4041 21.493l-2.2681 21.493q1.5121 0 4.6442 0.108 3.2402 0.10801 4.8603 0.10801 27.542 0 41.258-7.3444 6.0483-3.3482 11.233-8.7485 5.7244-6.0484 5.7244-10.261 0-15.013-17.065-27.974-15.661-11.881-32.834-13.717zm205.43 20.413q-6.9124 0-10.369-8.1005-3.0242-6.9124-5.6164-8.4245-2.2681-1.1881-11.233-1.1881-15.661 0-34.778 23.977-25.922 32.186-25.922 61.024 0 13.933 8.9645 23.977 9.1806 10.369 22.141 10.369 11.125 0 22.357-5.7243 6.2643-3.2402 19.225-12.745 6.1563-4.5363 9.2885-4.5363 4.6443 0 7.7765 3.5642 3.1322 3.4562 3.1322 7.7765 0 4.8603-4.1043 8.5325-28.514 25.273-57.675 25.273-22.357 0-37.802-17.173-14.905-16.633-14.905-39.314 0-36.614 30.674-75.064 25.598-32.078 51.627-32.078 5.2923 0 9.5045 0.54003 4.2123 0.43202 7.4525 1.5121 3.7802-5.5083 9.8286-5.5083 7.4524 0 9.3965 9.8286 1.7281 8.7485 1.7281 21.493 0 4.4283-2.3761 7.7765-2.9162 4.2122-8.3165 4.2122z" fill="url(#linearGradient4369)" aria-label="STiBaRC"/><g transform="matrix(.13963 0 0 .13963 699.4 562.1)"><g transform="matrix(-10.77 0 0 -10.77 362.61 1347.3)"><path d="m0 0c0-9.941-8.059-18-18-18s-18 8.059-18 18 8.059 18 18 18 18-8.059 18-18" fill="#ffcc4d"/></g><g transform="matrix(-10.77 0 0 -10.77 520.08 1415.3)"><path d="m0 0c-0.153 0.132-0.368 0.159-0.551 0.069l-4-2c-1.871-0.935-6.727-0.947-6.776-0.947h-1e-3c-0.276 0-0.499-0.224-0.499-0.5 0-0.184 0.1-0.347 0.25-0.433h1e-3l1e-3 -1e-3c0.071-0.041 0.153-0.064 0.24-0.066h7.008c2.658 0 4.089 2.186 4.474 3.342 0.064 0.192 6e-3 0.403-0.147 0.536" fill="#664500"/></g><g transform="matrix(-10.607 1.8638 -1.8638 -10.607 430.52 1339.3)"><path d="m0 0c-0.305 0-0.605 0.138-0.801 0.4-2.64 3.521-6.061 3.599-6.206 3.6-0.55 6e-3 -0.994 0.456-0.991 1.005 3e-3 0.551 0.447 0.995 0.997 0.995 0.184 0 4.537-0.05 7.8-4.4 0.332-0.442 0.242-1.069-0.2-1.4-0.18-0.135-0.39-0.2-0.599-0.2" fill="#664500"/></g><g transform="matrix(-10.607 1.8638 -1.8638 -10.607 706.33 1290.8)"><path d="m0 0c-0.208 0-0.419 0.065-0.599 0.2-0.442 0.331-0.531 0.958-0.2 1.4 3.262 4.35 7.616 4.4 7.8 4.4 0.552 0 1-0.448 1-1 0-0.551-0.445-0.998-0.996-1-0.155-2e-3 -3.568-0.086-6.204-3.6-0.197-0.262-0.497-0.4-0.801-0.4" fill="#664500"/></g><g transform="matrix(-10.607 1.8638 -1.8638 -10.607 593.34 1325.9)"><path d="m0 0c0.023 0.052 0.059 0.096 0.073 0.154 0.134 0.536-0.192 1.079-0.727 1.213-0.181 0.045-4.468 1.08-7.798-1.138-0.459-0.307-0.583-0.928-0.277-1.387 0.193-0.289 0.51-0.446 0.833-0.446 0.19 0 0.383 0.055 0.554 0.168 1.092 0.73 2.362 0.995 3.468 1.062-9e-3 -0.077-0.023-0.151-0.023-0.23 0-1.104 0.896-2 2-2 1.105 0 2 0.896 2 2 0 0.212-0.042 0.413-0.103 0.604" fill="#664500"/></g><g transform="matrix(-10.607 1.8638 -1.8638 -10.607 466.05 1348.3)"><path d="m0 0c0.023 0.052 0.059 0.095 0.073 0.152 0.135 0.537-0.191 1.079-0.727 1.213-0.18 0.045-4.466 1.08-7.797-1.138-0.46-0.306-0.584-0.927-0.278-1.387 0.193-0.289 0.51-0.445 0.834-0.445 0.19 0 0.382 0.055 0.553 0.168 1.092 0.729 2.362 0.994 3.469 1.06-9e-3 -0.076-0.023-0.15-0.023-0.228 0-1.104 0.895-2 2-2 1.104 0 2 0.896 2 2 0 0.212-0.042 0.413-0.104 0.605" fill="#664500"/></g><path d="m440.44 1407.9s7.5891-12.518 2.192-21.54c-5.5377-9.3365-13.589-5.2411-13.589-5.2411s7.1812-9.2165-0.12251-19.893c-6.8817-10.052-16.982-5.1641-16.982-5.1641s5.2095-10.306-2.5944-20.13c-6.5767-8.2662-18.558-4.7499-18.558-4.7499s33.221-46.382 36.667-51.098c3.431-4.7176 6.5823-14.63-3.2656-21.819-9.8385-7.2115-18.071-0.6637-21.362 3.8457-3.2835 4.5177-44.945 61.537-59.307 81.218l-27.027 108.01c32.59 23.852 78.718 17.512 102.56-15.086 1.2734-1.7085 21.385-28.356 21.385-28.356" fill="#f4900c"/></g></g></g><text transform="scale(.99998 1)" x="8.5250311" y="3.3033793" fill="#ffffff" filter="url(#filter41)" font-family="Verdana" font-size="2.6067px" stroke="#000000" stroke-width="0" xml:space="preserve"><tspan x="8.5250311" y="3.3033793" font-family="Verdana" stroke="#000000" stroke-width="0">Login with</tspan></text></svg>
